<svg class="niw_svg_allergen" width="88" height="174" viewBox="0 0 88 174" fill="none" xmlns="http://www.w3.org/2000/svg">
		<path d="M55.46 102.07V165.11H76.7701V173.11H26.1501V165.11H47.46V102.07C37.37 101.23 29.5401 97.09 24.1401 89.74C6.90007 66.3 21.69 18.08 22.33 16.04L23.21 13.24H79.71L80.59 16.04C81.23 18.08 96.0101 66.3 78.7801 89.74C73.3701 97.09 65.54 101.23 55.46 102.07Z" fill="#CF6E6E"/>
		<path d="M11.14 156.11H61.77" stroke="#3E3E3D" stroke-width="8" stroke-miterlimit="10"/>
		<path d="M36.46 85.24V156.11" stroke="#3E3E3D" stroke-width="8" stroke-miterlimit="10"/>
		<path d="M11.14 4.23999H61.76C61.76 4.23999 87.07 85.24 36.45 85.24C-14.17 85.24 11.14 4.23999 11.14 4.23999Z" stroke="#3E3E3D" stroke-width="8" stroke-miterlimit="10"/>
		<path d="M6.07996 29.55H69.21" stroke="#3E3E3D" stroke-width="8" stroke-miterlimit="10"/>
		</svg>