<svg class="niw_svg_allergen" width="115" height="176" viewBox="0 0 115 176" fill="none" xmlns="http://www.w3.org/2000/svg">
		<path d="M114.13 120.475C114.13 141.215 109.34 155.615 99.4601 164.495C91.4101 171.735 80.3301 175.105 64.5701 175.105C48.8201 175.105 37.7301 171.735 29.6801 164.495C19.8101 155.615 15.01 141.215 15.01 120.475C15.01 63.7849 59.8401 18.3048 61.7401 16.4048L64.5701 13.5748L67.4 16.4048C69.31 18.3048 114.13 63.7849 114.13 120.475Z" fill="#C2A379"/>
		<path d="M95.13 107.485C95.13 51.7949 49.5701 6.23486 49.5701 6.23486C49.5701 6.23486 4.01001 51.7949 4.01001 107.485C4.01001 149.425 24.4101 158.105 49.5701 158.105C74.7401 158.105 95.13 149.425 95.13 107.485Z" stroke="#3E3E3D" stroke-width="8" stroke-miterlimit="10"/>
		<path d="M58.8401 133.135C61.4201 135.785 64.2501 138.285 67.3501 140.585" stroke="#3E3E3D" stroke-width="8" stroke-miterlimit="10"/>
		<path d="M36.4301 67.9348C36.4301 98.4648 45.8001 116.965 53.7301 127.235" stroke="#3E3E3D" stroke-width="8" stroke-miterlimit="10"/>
		<path d="M23.78 112.265C26.94 123.815 32.03 134.985 39.9 144.445" stroke="#3E3E3D" stroke-width="8" stroke-miterlimit="10"/>
		<path d="M20.41 95.0049C20.85 98.4749 21.42 101.955 22.14 105.435" stroke="#3E3E3D" stroke-width="8" stroke-miterlimit="10"/>
		</svg>