<svg class="niw_svg_allergen" width="167" height="165" viewBox="0 0 167 165" fill="none" xmlns="http://www.w3.org/2000/svg">
		<path d="M166.54 103.85L163.44 105.4C158.42 107.91 153.23 109.16 147.94 109.16C138.49 109.16 128.74 105.18 119.1 97.2999C117.32 95.8399 115.65 94.3399 114.1 92.8399C107.1 105.2 90.67 132.74 74.42 148.99C64.24 159.17 54.9501 164.12 46.0301 164.12H45.67C36.33 163.98 29.67 158.38 25.48 154.18C10.75 139.45 12.45 123.44 30.67 105.23C46.91 88.9899 74.45 72.5499 86.82 65.5699C85.32 64.0099 83.81 62.3299 82.35 60.5399C70.06 45.5199 67.26 30.1899 74.25 16.2199L75.81 13.1099L79.1 14.2099C87.76 17.0999 94.35 21.9899 97.56 24.6899C100.62 20.0699 103.39 17.2699 103.58 17.0799L106.41 14.2499L109.23 17.0799C109.58 17.4299 116.35 24.2899 118.4 32.8199C131.6 29.6399 143.21 33.0699 143.75 33.2299L145.8 33.8499L146.42 35.8999C146.59 36.4399 150.01 48.0599 146.84 61.2499C155.37 63.3099 162.23 70.0799 162.57 70.4299L165.4 73.2499L162.57 76.0799C162.38 76.2699 159.58 79.0399 154.97 82.0999C157.68 85.3099 162.55 91.9099 165.44 100.56L166.54 103.85Z" fill="#A0C78C"/>
		<path d="M126.64 51.68C131.72 37.71 127.59 24.06 127.59 24.06C127.59 24.06 113.94 19.93 99.96 25.01C100.29 15.8 91.4 6.91003 91.4 6.91003C91.4 6.91003 62.82 35.48 89.48 62.16C116.16 88.83 144.73 60.26 144.73 60.26C144.73 60.26 135.85 51.36 126.64 51.68Z" stroke="#3E3E3D" stroke-width="8" stroke-miterlimit="10"/>
		<path d="M79.97 52.63C79.97 52.63 39.27 74.27 18.49 95.06C-2.29002 115.84 3.77998 128.83 13.3 138.36C22.82 147.88 35.81 153.94 56.59 133.16C77.38 112.38 99.03 71.68 99.03 71.68" stroke="#3E3E3D" stroke-width="8" stroke-miterlimit="10"/>
		<path d="M89.49 62.16C89.49 62.16 7.53001 118.73 13.31 138.36" stroke="#3E3E3D" stroke-width="8" stroke-miterlimit="10"/>
		<path d="M89.49 62.16C89.49 62.16 47.59 35.49 62.83 5.01001C74.26 8.83001 81.87 16.45 81.87 16.45" stroke="#3E3E3D" stroke-width="8" stroke-miterlimit="10"/>
		<path d="M89.49 62.16C89.49 62.16 116.17 104.06 146.65 88.83C142.83 77.4 135.21 69.78 135.21 69.78" stroke="#3E3E3D" stroke-width="8" stroke-miterlimit="10"/>
		</svg>