<svg class="niw_svg_allergen" width="115" height="174" viewBox="0 0 115 174" fill="none" xmlns="http://www.w3.org/2000/svg">
		<path d="M114.144 61.805V68.275C114.144 144.995 100.714 173.525 64.5837 173.525C28.4537 173.525 15.0237 144.995 15.0237 68.275V62.975L20.1238 64.425C23.8838 65.495 27.7338 66.865 31.5938 68.585C35.5038 40.405 47.5537 13.645 64.5837 13.645C81.8137 13.645 94.3037 40.825 97.9037 70.915C100.504 69.075 103.994 66.875 108.364 64.695L114.144 61.805Z" fill="#DAC763"/>
		<path d="M62.1238 126.925C72.6538 119.155 79.9737 101.165 79.9637 75.525C79.9637 40.575 66.3737 4.64502 49.5837 4.64502C34.9937 4.64502 22.8038 31.815 19.8838 61.885" stroke="#3E3E3D" stroke-width="8" stroke-miterlimit="10"/>
		<path d="M64.7737 80.585H79.9637" stroke="#3E3E3D" stroke-width="8" stroke-miterlimit="10"/>
		<path d="M69.8337 60.335H54.6437" stroke="#3E3E3D" stroke-width="8" stroke-miterlimit="10"/>
		<path d="M34.3937 45.155H49.5837" stroke="#3E3E3D" stroke-width="8" stroke-miterlimit="10"/>
		<path d="M29.3337 24.905H44.5237" stroke="#3E3E3D" stroke-width="8" stroke-miterlimit="10"/>
		<path d="M74.8937 35.025H59.7137" stroke="#3E3E3D" stroke-width="8" stroke-miterlimit="10"/>
		<path d="M62.2438 151.465C62.2438 95.775 39.4637 65.405 4.02368 55.275C4.02368 136.275 19.2137 156.525 49.5837 156.525C79.9537 156.525 95.1437 136.275 95.1437 55.275C85.0237 60.335 79.9537 65.395 79.9537 65.395" stroke="#3E3E3D" stroke-width="8" stroke-miterlimit="10"/>
		</svg>