<svg class="niw_svg_allergen" width="176" height="170" viewBox="0 0 176 170" fill="none" xmlns="http://www.w3.org/2000/svg">
		<path d="M175.13 94.13C175.13 143.13 126.06 143.69 125.57 143.69H105.32C105.04 143.7 97.55 143.92 93.71 151.61C89.27 160.49 89.07 165.03 89.07 165.07V169.07L85.07 169.01C79.01 169.01 68.03 165.66 66.16 153.54C54.03 151.67 50.69 140.69 50.69 134.63V130.63H54.69C54.69 130.63 59.23 130.42 68.09 125.99C85.73 117.17 95.1 115.44 105.32 115.44C107.17 115.42 116.51 114.78 116.51 104.26C116.51 93.74 107.17 93.09 105.3 93.07H59.76C47.87 93.07 25.38 86.94 25.38 63.76V52C20.42 50.61 15.26 46.55 15.26 38.44C15.26 28.08 23.7 24.32 29.38 24.32H80.01C81.85 24.3 91.19 23.65 91.19 13.13H99.19C99.19 28.31 86.64 32.32 80.01 32.32H29.38C27.56 32.35 23.26 33.02 23.26 38.44C23.26 43.86 27.56 44.53 29.42 44.57H48.93C51.52 41.48 55.42 39.51 59.76 39.51C64.1 39.51 67.99 41.48 70.58 44.57H125.57C126.06 44.57 175.13 45.13 175.13 94.13Z" fill="#BF745C"/>
		<path d="M14.38 35.5701C14.38 35.5701 14.38 40.6301 14.38 50.7601C14.38 76.0701 44.76 76.0701 44.76 76.0701C44.76 76.0701 80.2 76.0701 90.32 76.0701C90.32 76.0701 105.51 76.0701 105.51 91.2601C105.51 106.45 90.32 106.45 90.32 106.45C80.2 106.45 71.21 108.41 54.88 116.57C44.76 121.63 39.69 121.63 39.69 121.63C39.69 121.63 39.69 136.82 54.88 136.82C54.88 152.01 70.07 152.01 70.07 152.01C70.07 152.01 70.07 146.95 75.13 136.82C80.19 126.69 90.32 126.7 90.32 126.7H110.57C110.57 126.7 156.13 126.7 156.13 81.1401C156.13 35.5801 110.57 35.5801 110.57 35.5801C110.57 35.5801 79.85 35.5801 53.14 35.5801" stroke="#3E3E3D" stroke-width="8" stroke-miterlimit="10"/>
		<path d="M36.46 35.57C23.66 35.57 14.38 35.57 14.38 35.57C14.38 35.57 4.26001 35.57 4.26001 25.45C4.26001 15.33 14.38 15.33 14.38 15.33H65C65 15.33 80.19 15.33 80.19 0.140015" stroke="#3E3E3D" stroke-width="8" stroke-miterlimit="10"/>
		<path d="M44.75 50.75C50.3391 50.75 54.87 46.2191 54.87 40.63C54.87 35.0409 50.3391 30.51 44.75 30.51C39.1609 30.51 34.63 35.0409 34.63 40.63C34.63 46.2191 39.1609 50.75 44.75 50.75Z" stroke="#3E3E3D" stroke-width="8" stroke-miterlimit="10"/>
		<path d="M85.25 76.0701V35.5701" stroke="#3E3E3D" stroke-width="8" stroke-miterlimit="10"/>
		<path d="M105.5 81.1299L140.94 45.7" stroke="#3E3E3D" stroke-width="8" stroke-miterlimit="10"/>
		<path d="M105.5 91.26L146 111.51" stroke="#3E3E3D" stroke-width="8" stroke-miterlimit="10"/>
		<path d="M90.32 106.45L95.38 126.7" stroke="#3E3E3D" stroke-width="8" stroke-miterlimit="10"/>
		</svg>