<svg class="niw_svg_allergen" width="125" height="174" viewBox="0 0 125 174" fill="none" xmlns="http://www.w3.org/2000/svg">
		<path d="M124.82 108.685C124.82 129.035 118.95 145.935 107.83 157.555C98.04 167.795 84.67 173.435 70.19 173.435C55.72 173.435 42.35 167.795 32.55 157.555C21.44 145.935 15.57 129.035 15.57 108.685C15.57 66.7549 41.29 13.5649 70.19 13.5649C99.1 13.5649 124.82 66.7549 124.82 108.685Z" fill="#9B938E"/>
		<path d="M55.19 136.195C71.9684 136.195 85.57 122.593 85.57 105.815C85.57 89.0365 71.9684 75.4349 55.19 75.4349C38.4116 75.4349 24.81 89.0365 24.81 105.815C24.81 122.593 38.4116 136.195 55.19 136.195Z" stroke="#3E3E3D" stroke-width="8" stroke-miterlimit="10"/>
		<path d="M105.82 95.6849C105.82 53.7549 80.36 4.56494 55.19 4.56494C30.02 4.56494 4.57001 53.7549 4.57001 95.6849C4.57001 137.625 30.03 156.435 55.19 156.435C80.35 156.435 105.82 137.625 105.82 95.6849Z" stroke="#3E3E3D" stroke-width="8" stroke-miterlimit="10"/>
		</svg>