<svg class="niw_svg_allergen" width="178" height="118" viewBox="0 0 178 118" fill="none" xmlns="http://www.w3.org/2000/svg">
		<path d="M175.83 102.315L177.07 107.285H171.95C170.93 107.285 149.13 107.125 136.72 94.6351C124.36 110.345 106.87 117.415 80.8199 117.415C53.1699 117.415 37.08 105.655 28.46 95.7951C19.07 85.0651 16.3099 74.3351 16.1899 73.8851L15.87 72.5751L16.4 71.3351C17.05 69.8251 32.46 34.8251 68.6 33.5151C79.71 18.6651 99.92 13.2251 111.2 13.2251H115.2V17.2251C115.2 24.1551 113.48 31.3851 112.21 35.7651C118.05 37.6651 128.69 42.1651 136.62 51.2951C149.01 38.7051 170.91 38.5351 171.95 38.5351L177.07 38.5451L175.83 43.5051C175.63 44.3051 171.2 61.7251 162.13 72.9151C171.2 84.1051 175.63 101.515 175.83 102.315Z" fill="#6A9DB7"/>
		<path d="M5.06995 59.9151C5.06995 59.9151 20.2599 24.4751 55.6899 24.4751C65.8099 9.2951 86.0699 4.2251 96.1899 4.2251C96.1899 14.3451 92.14 25.4851 92.14 25.4851C92.14 25.4851 111.38 29.5251 121.51 44.7251C131.63 29.5351 156.95 29.5351 156.95 29.5351C156.95 29.5351 151.89 49.7851 141.76 59.9151C151.88 70.0351 156.95 90.2851 156.95 90.2851C156.95 90.2851 131.64 90.2851 121.51 75.0951C111.39 90.2851 96.1999 100.405 65.8199 100.405C15.1999 100.415 5.06995 59.9151 5.06995 59.9151Z" stroke="#3E3E3D" stroke-width="8" stroke-miterlimit="10"/>
		<path d="M55.7 100.415C55.7 100.415 70.89 64.9751 55.7 24.4751" stroke="#3E3E3D" stroke-width="8" stroke-miterlimit="10"/>
		<path d="M35.45 56.1152V49.7852" stroke="#3E3E3D" stroke-width="8" stroke-miterlimit="10"/>
		</svg>