<svg width="125" height="125" viewBox="0 0 125 125" fill="none" xmlns="http://www.w3.org/2000/svg">
<g clip-path="url(#clip0_403_63)">
<path d="M123.057 45.9395L114.136 30.4887C112.812 28.1971 110.347 26.7728 107.701 26.7728H87.7575L77.7841 9.50009C76.4602 7.20842 73.9943 5.78418 71.3484 5.78418H53.5075C50.8617 5.78418 48.3958 7.20842 47.0719 9.50009L37.0984 26.7728H17.2992C14.6534 26.7728 12.1856 28.1971 10.8636 30.4887L1.94314 45.9395C0.621168 48.2311 0.621168 51.0777 1.94314 53.3694L12.4621 71.5891C12.8011 72.1762 13.4261 72.5361 14.1022 72.5361H17.1401V91.2027C17.1401 95.072 20.2897 98.2217 24.159 98.2217C28.0303 98.2217 31.1799 95.072 31.1799 91.2027V84.43C31.1799 83.0171 32.3276 81.8675 33.7405 81.8675C35.1534 81.8675 36.303 83.0171 36.303 84.43V104.116C36.303 107.953 39.4242 111.074 43.2613 111.074C47.0965 111.074 50.2178 107.953 50.2178 104.116V102.311C50.2178 100.46 51.7215 98.9565 53.5719 98.9565C55.4223 98.9565 56.9261 100.46 56.9261 102.311V112.318C56.9261 116.121 60.0208 119.216 63.8238 119.216C67.6269 119.216 70.7216 116.121 70.7216 112.318V103.653C70.7216 101.871 72.1704 100.422 73.9526 100.422C75.7348 100.422 77.1856 101.871 77.1856 103.653V106.095C77.1856 109.832 80.2234 112.871 83.9602 112.871C87.6969 112.871 90.7367 109.832 90.7367 106.095V72.538H107.706C110.352 72.538 112.818 71.1137 114.142 68.8221L123.061 53.3713C124.381 51.0796 124.381 48.2311 123.057 45.9395ZM51.5473 51.5493H73.4526L84.4772 70.644L74.5056 87.9149C73.8579 89.038 72.6496 89.7368 71.3503 89.7368H53.5094C52.2121 89.7368 51.0037 89.038 50.3541 87.9149L40.4526 70.7652L51.5473 51.5493ZM50.3541 11.3959C51.0019 10.2728 52.2102 9.57395 53.5094 9.57395H71.3503C72.6477 9.57395 73.856 10.2728 74.5056 11.3959L84.4772 28.6668L73.4526 47.7633H51.5473L40.4526 28.5455L50.3541 11.3959ZM5.22344 51.4774C4.57382 50.3543 4.57382 48.9584 5.22344 47.8353L14.1439 32.3827C14.7916 31.2596 16 30.5626 17.2992 30.5626H37.1022L48.1268 49.6573L37.1003 68.7501H15.195L5.22344 51.4774ZM83.9564 109.082C82.3087 109.082 80.9697 107.741 80.9697 106.093V103.652C80.9697 99.7823 77.82 96.6327 73.9488 96.6327C70.0795 96.6327 66.9299 99.7823 66.9299 103.652V112.316C66.9299 114.03 65.534 115.426 63.82 115.426C62.106 115.426 60.7102 114.032 60.7102 112.316V102.311C60.7102 98.3732 57.5056 95.1686 53.5681 95.1686C49.6306 95.1686 46.4261 98.3732 46.4261 102.311V104.118C46.4261 105.866 45.0056 107.288 43.2575 107.288C41.5094 107.288 40.0871 105.866 40.0871 104.118V84.4338C40.0871 80.9319 37.2386 78.0834 33.7367 78.0834C30.2367 78.0834 27.3882 80.9319 27.3882 84.4338V91.2065C27.3882 92.9887 25.9375 94.4376 24.1553 94.4376C22.3731 94.4376 20.9242 92.9887 20.9242 91.2065V72.538H37.0984L47.0719 89.8107C48.3958 92.1024 50.8617 93.5266 53.5075 93.5266H71.3484C73.9943 93.5266 76.4602 92.1024 77.7841 89.8107L86.9412 73.9489V106.093C86.945 107.741 85.6041 109.082 83.9564 109.082ZM119.776 51.4774L110.856 66.9281C110.208 68.0512 109 68.7501 107.701 68.7501H87.7575L76.7329 49.6554L87.7575 30.5607H107.701C108.998 30.5607 110.206 31.2596 110.856 32.3827L119.776 47.8353C120.426 48.9584 120.426 50.3524 119.776 51.4774Z" fill="#F6A636"/>
</g>
<defs>
<clipPath id="clip0_403_63">
<rect width="124.86" height="124.86" fill="white"/>
</clipPath>
</defs>
</svg>
