<svg class="niw_svg_allergen" width="146" height="175" viewBox="0 0 146 175" fill="none" xmlns="http://www.w3.org/2000/svg">
		<path d="M132.61 126.85C126.86 130.61 120.94 132.5 115.24 132.5C113.56 132.5 111.9 132.34 110.27 132.01C110 138.63 108.42 147.9 102.48 154.76C98.09 159.81 92.1201 162.74 84.6701 163.48V174.88H76.6701V163.48C69.2301 162.74 63.25 159.81 58.87 154.76C52.92 147.9 51.35 138.63 51.08 132.01C49.45 132.34 47.79 132.5 46.11 132.5C40.4 132.5 34.49 130.61 28.73 126.86C17.32 119.41 13.13 107.24 17.23 93.46C21.94 77.63 37.53 60.9899 58.13 53.3799H56.4201C56.4201 47.6099 58.8201 38.3099 66.5501 33.0599C66.5101 22.6099 57.21 21.9699 55.34 21.9399L55.36 13.9399C61.48 13.9399 72.64 17.3499 74.32 29.7899C76.24 29.3599 78.3501 29.1299 80.6701 29.1299C82.9901 29.1299 85.1101 29.3599 87.0301 29.7899C88.7101 17.3499 99.87 13.9399 105.99 13.9399L106.01 21.9399C104.14 21.9699 94.8401 22.6099 94.8001 33.0699C102.53 38.3199 104.92 47.6099 104.92 53.3799H103.07C123.68 60.8499 139.4 77.62 144.11 93.46C148.21 107.24 144.02 119.41 132.61 126.85Z" fill="#C8A65F"/>
		<path d="M65.67 161.89V146.7" stroke="#3E3E3D" stroke-width="8" stroke-miterlimit="10"/>
		<path d="M65.67 40.3899C109.89 40.3899 145.68 90.7699 115.43 110.51C90.9801 126.45 65.67 104.67 65.67 40.3899Z" stroke="#3E3E3D" stroke-width="8" stroke-miterlimit="10"/>
		<path d="M65.67 40.3899C21.45 40.3899 -14.34 90.7699 15.91 110.51C40.36 126.45 65.67 104.67 65.67 40.3899Z" stroke="#3E3E3D" stroke-width="8" stroke-miterlimit="10"/>
		<path d="M45.42 40.3899C45.42 40.3899 45.42 20.1399 65.67 20.1399C85.92 20.1399 85.92 40.3899 85.92 40.3899" stroke="#3E3E3D" stroke-width="8" stroke-miterlimit="10"/>
		<path d="M40.36 4.94995C40.36 4.94995 55.55 4.94995 55.55 20.14" stroke="#3E3E3D" stroke-width="8" stroke-miterlimit="10"/>
		<path d="M90.98 4.94995C90.98 4.94995 75.79 4.94995 75.79 20.14" stroke="#3E3E3D" stroke-width="8" stroke-miterlimit="10"/>
		<path d="M40.36 111.26C40.36 111.26 35.3001 146.7 65.6701 146.7C96.0401 146.7 90.98 111.26 90.98 111.26" stroke="#3E3E3D" stroke-width="8" stroke-miterlimit="10"/>
		<path d="M40.36 126.45H90.98" stroke="#3E3E3D" stroke-width="8" stroke-miterlimit="10"/>
		<path d="M50.48 106.2H80.86" stroke="#3E3E3D" stroke-width="8" stroke-miterlimit="10"/>
		</svg>