<svg class="niw_svg_allergen" width="169" height="130" viewBox="0 0 169 130" fill="none" xmlns="http://www.w3.org/2000/svg">
		<path d="M167.321 92.7651C162.531 116.735 145.061 129.935 118.131 129.935C109.671 129.935 98.8807 127.015 92.3407 119.015C84.6707 126.215 73.0307 129.335 54.6507 129.335C31.3407 129.335 22.0607 121.155 18.3907 114.285C13.8307 105.775 15.4807 94.8451 23.0307 83.5151C31.9307 70.1651 38.0107 63.2251 52.4907 60.4951C49.8207 54.4951 49.9407 47.2851 52.8407 38.6251C61.3507 13.0851 77.9007 13.1751 88.8707 13.2551H90.5807C105.801 13.2551 117.751 17.8251 124.231 26.1351C129.531 32.9151 130.971 41.9151 128.411 52.1751C127.811 54.5551 127.091 56.7851 126.251 58.8751C129.451 58.1351 132.961 57.7151 136.551 57.7151C144.811 57.7151 153.491 59.9151 159.821 65.5051C164.841 69.9451 170.221 78.2651 167.321 92.7651Z" fill="#BDA885"/>
		<path d="M85.6407 65.0052C82.6007 56.3352 73.7607 50.1052 56.6307 50.1052C28.3407 50.1052 22.6907 55.7652 11.3607 72.7352C-2.66927 93.7952 5.70071 112.345 39.6507 112.345C61.2107 112.345 71.3607 107.775 77.3407 100.105" stroke="#3E3E3D" stroke-width="8" stroke-miterlimit="10"/>
		<path d="M108.791 50.6952C125.761 45.0352 154.061 50.6952 148.401 78.9852C142.741 107.275 120.111 112.935 103.131 112.935C86.1607 112.935 66.8707 100.585 80.5107 73.3352C86.1607 62.0152 91.8207 56.3552 108.791 50.6952Z" stroke="#3E3E3D" stroke-width="8" stroke-miterlimit="10"/>
		<path d="M42.8507 48.8952C38.8007 43.1152 38.6607 35.7752 41.6207 26.8952C49.6207 2.89524 64.2507 4.26524 75.5707 4.26524C98.8807 4.26524 115.171 15.5853 109.511 38.2153C108.141 43.6953 106.111 48.1753 103.501 51.7453" stroke="#3E3E3D" stroke-width="8" stroke-miterlimit="10"/>
		<path d="M131.431 77.4952C131.431 77.4952 131.431 92.6852 106.121 97.7452" stroke="#3E3E3D" stroke-width="8" stroke-miterlimit="10"/>
		<path d="M58.5307 31.9352C58.5307 31.9352 60.7907 23.3452 65.6207 21.8152C79.0707 17.5452 92.3607 25.2052 92.3607 25.2052" stroke="#3E3E3D" stroke-width="8" stroke-miterlimit="10"/>
		<path d="M23.1207 92.3052C23.1207 92.3052 29.4507 94.9152 37.6707 94.9052C53.0407 94.8852 60.5507 93.1652 60.5507 93.1652" stroke="#3E3E3D" stroke-width="8" stroke-miterlimit="10"/>
		</svg>