<svg class="niw_svg_allergen" width="172" height="170" viewBox="0 0 126 102" fill="none" xmlns="http://www.w3.org/2000/svg">
		<g clip-path="url(#clip0)">
		<path d="M115.19 37.5199C115.28 36.6199 115.33 35.6999 115.33 34.7799C115.33 25.0699 104.64 24.2399 100.91 23.6699C100.89 21.7999 100.59 20.1899 99.96 18.9099C97.91 14.8099 93.82 12.1099 89.24 11.8499L78.07 11.1999C76.06 8.92986 72.95 7.60986 68.35 7.60986C63.74 7.60986 60.63 8.92986 58.63 11.2199L47.73 11.8599C43.15 12.1299 39.06 14.8199 37.01 18.9199C36.37 20.1899 36.08 21.8099 36.06 23.6799C32.33 24.2499 21.64 25.0799 21.64 34.7899C21.64 35.7099 21.69 36.6299 21.78 37.5299C14.94 40.9299 9.36001 48.7399 11.29 56.4499C12.92 62.9499 22.98 73.1499 38.57 83.8099L38.45 83.9899V90.2799C38.45 96.2199 43.37 101.04 49.31 101.04C51.43 101.04 53.51 100.41 55.28 99.2299L59.45 96.4499C61.06 97.3199 62.7 98.1799 64.37 99.0399C66.94 100.36 70.04 100.36 72.61 99.0399C74.17 98.2399 75.7 97.4399 77.19 96.6199L81.09 99.2199C82.86 100.4 84.93 101.03 87.06 101.03C93 101.03 97.78 96.2099 97.78 90.2699V83.7599C114.7 71.6699 123.13 61.4399 123.31 61.2099C124.23 59.7299 124.92 58.1199 125.34 56.4299C127.27 48.7199 122.03 40.9099 115.19 37.5199Z" fill="#CD725A"/>
		<path d="M40.75 98.09C46.18 98.09 49.01 94.99 51.01 93.89C52.27 94.56 53.51 95.21 54.73 95.84C57.9 97.46 61.77 97.54 65.1 95.85C66.24 95.27 67.38 94.67 68.5 94.07C70.31 95.05 73.14 98.09 78.5 98.09C85.7 98.09 91.56 92.22 91.56 85V79.69C108.1 67.71 116.48 57.52 116.57 57.42C116.57 57.42 116.57 57.41 116.58 57.41C116.61 57.38 116.63 57.34 116.66 57.31C116.67 57.29 116.69 57.27 116.7 57.25C116.73 57.21 116.75 57.17 116.78 57.13C116.79 57.12 116.8 57.1 116.81 57.09C116.81 57.08 116.82 57.08 116.82 57.08C117.84 55.43 118.59 53.63 119.07 51.74C120.11 47.56 119.39 43.01 117.04 38.93C115.16 35.66 112.37 32.86 109.09 30.92C109.11 30.45 109.13 29.97 109.13 29.51C109.13 19.22 99.4 17.1 94.57 16.36C94.39 14.93 94.04 13.66 93.51 12.6C91.09 7.76 86.24 4.56 80.84 4.25L70.57 3.65C67.99 1.23 64.38 0 59.79 0C55.18 0 51.57 1.23 49.03 3.66L39.03 4.24C33.63 4.55 28.78 7.75 26.36 12.59C25.83 13.65 25.48 14.92 25.3 16.35C20.48 17.09 10.74 19.21 10.74 29.5C10.74 29.96 10.75 30.43 10.78 30.91C7.47002 32.85 4.63002 35.64 2.68002 38.88C0.170016 43.06 -0.599984 47.5 0.460016 51.73C2.22002 58.78 12.07 68.93 27.55 79.67V85C27.56 92.22 33.47 98.09 40.75 98.09ZM40.75 93.42C36.05 93.42 32.23 89.64 32.23 85V82.82C36.68 85.73 41.42 88.59 46.38 91.37C45.83 91.65 43.98 93.42 40.75 93.42ZM78.49 93.42C75.34 93.42 73.49 91.73 73.1 91.53C77.83 88.84 82.44 85.98 86.88 82.96V85C86.88 89.64 83.12 93.42 78.49 93.42ZM4.99002 50.6C3.58002 44.98 6.97002 39.4 11.47 36.05C14.59 50.06 26.52 60.95 35 69.6C35.9 70.52 37.38 70.54 38.3 69.63C39.22 68.73 39.23 67.25 38.33 66.33C30.83 58.69 17 46.37 15.53 32.01C15.45 31.16 15.4 30.32 15.4 29.5C15.4 24.15 19.28 22.14 25.28 21.09C26.57 34.46 36.7 54.18 41.24 63.8C41.79 64.97 43.19 65.46 44.35 64.91C45.52 64.36 46.02 62.97 45.46 61.8C42.23 54.97 29.67 30.88 29.82 18.41C29.84 16.83 30.07 15.57 30.52 14.67C32.19 11.33 35.55 9.11 39.28 8.9L45.86 8.52C42.09 18.43 47.21 34.97 49.57 49.46C49.78 50.73 50.98 51.6 52.25 51.39C53.52 51.18 54.39 49.98 54.18 48.71C51.69 33.46 45.78 14.33 51.8 7.48C53.46 5.59 56.06 4.67 59.77 4.67C63.47 4.67 66.07 5.59 67.74 7.47C73.77 14.29 67.85 33.42 65.36 48.71C65.15 49.98 66.02 51.18 67.29 51.39C67.42 51.41 67.54 51.42 67.67 51.42C68.79 51.42 69.79 50.61 69.97 49.46C72.34 34.95 77.47 18.41 73.69 8.5L80.53 8.9C84.26 9.12 87.62 11.33 89.29 14.67C89.74 15.57 89.98 16.83 89.99 18.41C90.14 30.53 78.26 53.52 74.29 61.92C73.74 63.09 74.24 64.48 75.4 65.03C76.57 65.58 77.96 65.08 78.51 63.92C81.54 57.51 93.17 35.3 94.53 21.09C100.52 22.14 104.41 24.15 104.41 29.5C104.41 30.32 104.37 31.16 104.28 32C102.85 46.06 89.85 57.83 81.36 66.45C80.45 67.37 80.46 68.85 81.38 69.75C82.3 70.66 83.78 70.65 84.68 69.73C92.18 62.13 105.11 50.58 108.34 36.07C112.68 39.38 115.91 44.92 114.49 50.59C114.14 52.01 113.57 53.35 112.81 54.59C104.22 64.78 85.96 79.93 62.96 91.67C61.04 92.65 58.76 92.65 56.85 91.67C48.31 87.29 39.47 82.16 31.32 76.59C13.69 64.54 6.16002 55.26 4.99002 50.6Z" fill="#3C3C3B"/>
		<path d="M52.5096 54.211L48.6064 58.1147L53.0547 62.5624L56.9579 58.6587L52.5096 54.211Z" fill="#3C3C3B"/>
		<path d="M67.0674 54.2107L62.6191 58.6577L66.5218 62.5615L70.9701 58.1144L67.0674 54.2107Z" fill="#3C3C3B"/>
		</g>
		<defs>
		<clipPath id="clip0">
		<rect width="125.74" height="101.03" fill="white"/>
		</clipPath>
		</defs>
		</svg>