<svg class="niw_svg_allergen" width="146" height="174" viewBox="0 0 146 174" fill="none" xmlns="http://www.w3.org/2000/svg">
		<path d="M121.06 96.3851C121.21 98.4651 120.51 100.385 119.1 101.795C115.03 105.865 109.34 105.625 105.08 104.615V149.595C105.08 157.985 100.01 173.845 80.8301 173.845C61.6501 173.845 56.5801 157.985 56.5801 149.595V104.615C52.3201 105.625 46.6301 105.855 42.5701 101.795C41.1501 100.385 40.46 98.4651 40.6 96.3851C40.91 92.1151 45.23 86.9451 49.65 82.7251H15.66L16.1 78.3251C16.17 77.6751 17.8001 62.1452 26.4501 46.4152C38.1201 25.1952 56.9301 13.9751 80.8301 13.9751C104.74 13.9751 123.54 25.1952 135.22 46.4152C143.86 62.1452 145.5 77.6751 145.56 78.3251L146 82.7251H112.02C116.43 86.9451 120.76 92.1151 121.06 96.3851Z" fill="#C87D7D"/>
		<path d="M5.08008 65.7251H126.58C126.58 65.7251 120.51 4.9751 65.8301 4.9751C11.1501 4.9751 5.08008 65.7251 5.08008 65.7251Z" stroke="#3E3E3D" stroke-width="8" stroke-miterlimit="10"/>
		<path d="M45.5801 85.9751V136.595C45.5801 136.595 45.5801 156.845 65.8301 156.845C86.0801 156.845 86.0801 136.595 86.0801 136.595V85.9751" stroke="#3E3E3D" stroke-width="8" stroke-miterlimit="10"/>
		<path d="M45.5801 65.7251C45.5801 65.7251 25.33 80.9151 30.39 85.9751C35.45 91.0351 45.5801 85.9751 45.5801 85.9751C45.5801 85.9751 50.6401 91.0352 55.7001 91.0352C60.7601 91.0352 65.8201 85.9751 65.8201 85.9751C65.8201 85.9751 70.88 91.0352 75.94 91.0352C81 91.0352 86.06 85.9751 86.06 85.9751C86.06 85.9751 96.18 91.0351 101.25 85.9751C106.32 80.9151 86.06 65.7251 86.06 65.7251" stroke="#3E3E3D" stroke-width="8" stroke-miterlimit="10"/>
		<path d="M36.8 35.6051L32.53 31.3351" stroke="#3E3E3D" stroke-width="8" stroke-miterlimit="10"/>
		<path d="M64.73 25.4951L60.4601 21.2251" stroke="#3E3E3D" stroke-width="8" stroke-miterlimit="10"/>
		<path d="M53.02 50.2151L48.76 45.9451" stroke="#3E3E3D" stroke-width="8" stroke-miterlimit="10"/>
		<path d="M79.51 49.4152L75.24 45.1451" stroke="#3E3E3D" stroke-width="8" stroke-miterlimit="10"/>
		<path d="M94.2101 33.4751L89.9401 29.2051" stroke="#3E3E3D" stroke-width="8" stroke-miterlimit="10"/>
		</svg>