<svg class="niw_svg_allergen" width="172" height="170" viewBox="0 0 135 175" fill="none" xmlns="http://www.w3.org/2000/svg">
		<path d="M134.82 78.17H125.14C129.21 121.58 116.34 145.21 104.6 157.49C91.1899 171.51 76.4399 174.19 75.8099 174.3L75.1299 174.42L74.4499 174.3C73.8299 174.19 59.0799 171.51 45.6699 157.49C33.9199 145.21 21.06 121.58 25.14 78.17H15.4499V74.17C15.4499 73.66 15.5299 61.51 22.9899 49.3C29.5699 38.54 43.2199 25.8 71.1299 24.69V13.42H79.1299V24.69C107.04 25.8 120.7 38.54 127.27 49.3C134.73 61.51 134.82 73.66 134.82 74.17V78.17Z" fill="#A07553"/>
		<path d="M60.1299 15.61V0.420044" stroke="#3E3E3D" stroke-width="8" stroke-miterlimit="10"/>
		<path d="M4.43988 61.1701H115.82C115.82 61.1701 115.82 15.6101 60.1299 15.6101C4.43995 15.6101 4.43988 61.1701 4.43988 61.1701Z" stroke="#3E3E3D" stroke-width="8" stroke-miterlimit="10"/>
		<path d="M14.5699 61.17C4.44986 147.74 60.1299 157.36 60.1299 157.36C60.1299 157.36 115.82 147.74 105.69 61.17" stroke="#3E3E3D" stroke-width="8" stroke-miterlimit="10"/>
		<path d="M52.4799 133.38C54.8299 135.68 57.1899 137.61 59.4599 139.22" stroke="#3E3E3D" stroke-width="8" stroke-miterlimit="10"/>
		<path d="M32.8998 96.6101C35.9498 109.5 40.8699 119.17 46.3399 126.41" stroke="#3E3E3D" stroke-width="8" stroke-miterlimit="10"/>
		<path d="M95.0399 49.19L85.4399 45.99" stroke="#3E3E3D" stroke-width="8" stroke-miterlimit="10"/>
		<path d="M75.0999 40.92L75.3199 30.8" stroke="#3E3E3D" stroke-width="8" stroke-miterlimit="10"/>
		<path d="M59.5499 44.31L50.0099 40.92" stroke="#3E3E3D" stroke-width="8" stroke-miterlimit="10"/>
		<path d="M34.8199 35.8601L26.7499 41.9801" stroke="#3E3E3D" stroke-width="8" stroke-miterlimit="10"/>
		</svg>