<svg class="niw_svg_allergen" width="115" height="176" viewBox="0 0 115 176" fill="none" xmlns="http://www.w3.org/2000/svg">
		<path d="M114.57 100.07C114.57 135.32 99.66 153.2 69.01 154.6V176H61.01V154.6C30.36 153.2 15.45 135.32 15.45 100.07C15.45 58.2499 60.44 17.78 62.35 16.08L65.01 13.71L67.67 16.08C69.58 17.78 114.57 58.2499 114.57 100.07Z" fill="#ABC961"/>
		<path d="M50.01 163.01V36.4399" stroke="#3E3E3D" stroke-width="8" stroke-miterlimit="10"/>
		<path d="M29.76 51.63L50.01 71.88L70.26 51.63" stroke="#3E3E3D" stroke-width="8" stroke-miterlimit="10"/>
		<path d="M19.64 82.01L50.01 112.38L80.39 82.01" stroke="#3E3E3D" stroke-width="8" stroke-miterlimit="10"/>
		<path d="M50.01 6.06995C50.01 6.06995 4.44995 46.5699 4.44995 87.0699C4.44995 127.57 24.7 137.69 50.01 137.69C75.32 137.69 95.5699 127.57 95.5699 87.0699C95.5699 46.5699 50.01 6.06995 50.01 6.06995Z" stroke="#3E3E3D" stroke-width="8" stroke-miterlimit="10"/>
		</svg>