<svg class="niw_svg_allergen" width="156" height="154" viewBox="0 0 156 154" fill="none" xmlns="http://www.w3.org/2000/svg">
		<path d="M143.51 70.0449C137.34 76.2049 132.2 79.2849 127.23 82.2749C122.46 85.1349 117.96 87.8349 112.48 93.3049C107.59 98.2049 104.95 103.885 101.89 110.475C98.2701 118.285 94.16 127.145 85.35 135.955C75.29 146.015 61.64 153.435 48.45 153.435C40.27 153.435 32.2601 150.575 25.4001 143.715C17.2201 135.535 14.1601 124.905 16.5501 112.955C18.5801 102.815 24.4801 92.4449 33.1601 83.7649C41.9701 74.9549 50.83 70.8449 58.64 67.2149C65.23 64.1649 70.9101 61.5249 75.8101 56.6349C81.9001 50.5349 85.69 44.5449 89.36 38.7549C92.4 33.9449 95.27 29.4149 99.07 25.6149C105.49 19.1849 114.12 14.8849 122.73 13.8049C132.32 12.6049 141.08 15.4249 147.38 21.7249C161.1 35.4449 156.05 57.4949 143.51 70.0449Z" fill="#B09A7C"/>
		<path d="M20.99 73.6049C5.46999 89.115 -2.29002 112.385 13.23 127.895C28.74 143.405 52 135.655 67.52 120.135C83.02 104.625 83.02 89.115 94.65 77.485C106.3 65.845 114.04 65.855 125.68 54.225C137.31 42.585 141.18 23.1949 129.56 11.5649C117.93 -0.0650506 98.53 3.81495 86.9 15.455C79.15 23.205 75.27 34.835 63.63 46.475C52.01 58.095 36.49 58.0949 20.99 73.6049Z" stroke="#3E3E3D" stroke-width="8" stroke-miterlimit="10"/>
		<path d="M37.9 85.855C37.9 85.855 22.39 93.615 26.27 112.995" stroke="#3E3E3D" stroke-width="8" stroke-miterlimit="10"/>
		<path d="M117.93 38.7049L121.4 28.3049" stroke="#3E3E3D" stroke-width="8" stroke-miterlimit="10"/>
		</svg>