<svg class="niw_svg_allergen" width="148" height="166" viewBox="0 0 148 166" fill="none" xmlns="http://www.w3.org/2000/svg">
		<path d="M138.1 140.443C133.54 148.943 128.88 155.263 123.97 159.443C119.06 163.623 113.9 165.683 108.33 165.683C103.68 165.683 98.76 164.253 93.47 161.413C80.26 154.343 75.55 144.343 79.11 129.953C78.07 130.793 76.95 131.613 75.74 132.413C71.74 135.053 66.04 138.223 59.31 138.223C57.6 138.223 55.83 138.023 53.99 137.553C45.74 135.433 37.69 128.273 29.36 115.663C11.9 89.2632 13.32 55.6032 21.41 50.2432C27.46 46.2532 46.56 51.8631 63.11 65.9531C63.38 64.8131 63.68 63.6632 64 62.4932C72.33 31.9732 98.57 10.8432 107.93 13.3832C117.29 15.9432 129.15 47.4732 120.82 78.0232C120.78 78.1532 120.75 78.2932 120.71 78.4232C129.1 74.1032 136.4 72.6733 139.95 74.5633C148.5 79.1533 153.04 112.533 138.1 140.443Z" fill="#CCB58C"/>
		<path d="M60.15 72.3932C43.42 47.0732 13.93 37.0831 8.60998 40.5831C3.30998 44.0931 0.949981 75.1431 17.69 100.463C34.42 125.783 46.8 123.843 58.53 116.083C70.26 108.323 76.89 97.7032 60.15 72.3932Z" stroke="#3E3E3D" stroke-width="8" stroke-miterlimit="10"/>
		<path d="M21.99 57.0732C22.73 66.0932 25.58 77.6231 31.62 88.7031" stroke="#3E3E3D" stroke-width="8" stroke-miterlimit="10"/>
		<path d="M119.58 125.563C133.9 98.8032 128.68 68.1031 123.07 65.1031C117.46 62.1131 89.0299 74.7832 74.6899 101.543C60.3699 128.293 67.9699 138.263 80.3599 144.903C92.7499 151.533 105.25 152.313 119.58 125.563Z" stroke="#3E3E3D" stroke-width="8" stroke-miterlimit="10"/>
		<path d="M101.82 120.393C103.84 117.583 105.89 114.263 107.99 110.353C110.91 104.903 113.01 99.2932 114.48 93.7732" stroke="#3E3E3D" stroke-width="8" stroke-miterlimit="10"/>
		<path d="M88.0499 132.393C90.6399 131.393 93.2799 129.713 95.9699 127.173" stroke="#3E3E3D" stroke-width="8" stroke-miterlimit="10"/>
		<path d="M69.01 81.1732C71.36 78.6332 73.81 75.5831 76.37 71.9631C79.93 66.9131 82.7 61.5932 84.81 56.3032" stroke="#3E3E3D" stroke-width="8" stroke-miterlimit="10"/>
		<path d="M98.32 74.7632C99.61 71.6632 100.83 68.0832 101.96 63.9632C109.95 34.6832 98.01 5.91321 91.88 4.24321C85.74 2.57321 60.84 21.2833 52.85 50.5533C51.84 54.2133 51.13 57.5433 50.66 60.5733" stroke="#3E3E3D" stroke-width="8" stroke-miterlimit="10"/>
		</svg>