<svg class="niw_svg_allergen" width="156" height="172" viewBox="0 0 156 172" fill="none" xmlns="http://www.w3.org/2000/svg">
		<path d="M122.638 139.075C96.4382 165.285 73.8881 171.935 57.7481 171.935C54.8681 171.935 52.1881 171.725 49.7281 171.365C31.8382 168.815 21.5281 158.685 21.0981 158.255C12.7181 149.875 10.7082 132.315 32.6082 110.415C39.0382 103.985 47.7281 100.105 51.4981 98.6248C52.9781 94.8548 56.8581 86.1548 63.2881 79.7348C69.7181 73.3048 78.4081 69.4249 82.1781 67.9449C83.6581 64.1749 87.5381 55.4848 93.9581 49.0548C103.678 39.3448 115.388 36.0849 121.508 35.0049C126.268 34.1649 132.208 33.8648 136.718 34.9848C139.368 22.1648 138.848 14.0348 138.828 13.8348L146.808 13.2249C146.878 14.1549 147.548 24.4448 143.928 39.9948C144.948 41.2848 146.228 43.0648 147.568 45.3148C150.478 50.1848 153.648 57.2248 154.928 66.1748C157.238 82.3848 153.518 108.195 122.638 139.075Z" fill="#7ABA68"/>
		<path d="M65.7281 115.685C64.8781 114.285 63.8281 112.965 62.6281 111.745C54.1481 103.275 40.4081 103.275 31.9481 111.745C24.9281 118.765 23.7181 129.385 28.3181 137.635" stroke="#3E3E3D" stroke-width="8" stroke-miterlimit="10"/>
		<path d="M96.0782 84.4749C95.2882 83.2649 94.3682 82.1249 93.2982 81.0649C84.8382 72.5949 71.0882 72.5949 62.6282 81.0649C54.1482 89.5349 54.1482 103.275 62.6282 111.745C63.6882 112.805 64.8282 113.725 66.0382 114.515" stroke="#3E3E3D" stroke-width="8" stroke-miterlimit="10"/>
		<path d="M118.428 46.3649C110.278 42.2549 100.098 43.5849 93.2982 50.3849C84.8382 58.8549 84.8382 72.5849 93.2982 81.0649C94.3682 82.1149 95.4981 83.0549 96.6981 83.8449" stroke="#3E3E3D" stroke-width="8" stroke-miterlimit="10"/>
		<path d="M127.818 0.534912C127.818 0.534912 131.658 50.3949 81.7881 100.245C39.6081 142.425 8.92813 142.425 8.92813 142.425" stroke="#3E3E3D" stroke-width="8" stroke-miterlimit="10"/>
		<path d="M123.978 27.3748C120.148 23.5448 97.1381 23.5448 81.7881 38.8848C74.1281 46.5548 70.2881 58.0548 70.2881 58.0548C70.2881 58.0548 58.7881 61.8848 51.1181 69.5548C43.4481 77.2248 39.6081 88.7248 39.6081 88.7248C39.6081 88.7248 28.1081 92.5648 20.4381 100.235C1.26813 119.415 1.26812 134.745 8.92812 142.415C8.92812 142.415 47.2781 180.765 104.808 123.245C162.328 65.7348 123.978 27.3748 123.978 27.3748Z" stroke="#3E3E3D" stroke-width="8" stroke-miterlimit="10"/>
		</svg>