<svg class="niw_svg_allergen" width="165" height="179" viewBox="0 0 165 179" fill="none" xmlns="http://www.w3.org/2000/svg">
		<path d="M164.839 73.5C164.839 102.36 142.729 152.09 106.719 167.52C87.7195 175.67 68.6895 178.81 52.9895 178.81C38.2395 178.81 26.4295 176.04 20.3595 172.03C15.9995 169.16 15.0895 166 15.0895 163.85C15.0895 155.51 23.1395 153.84 31.6695 152.07C39.6495 150.42 50.5695 148.16 62.5895 140.95C90.8995 123.96 96.0895 104.91 96.0895 73.5C96.0895 73.15 96.1295 64.87 100.299 56.53C104.269 48.59 112.73 39.13 130.46 39.13C130.73 39.13 130.99 39.13 131.25 39.14C128.95 22.46 112.23 21.8299 110.2 21.8199L110.21 13.8199C119.88 13.8199 137.78 19.39 139.4 40.04C151.17 42.59 157.39 50.06 160.62 56.53C164.79 64.87 164.839 73.15 164.839 73.5Z" fill="#BD653D"/>
		<path d="M95.2095 4.81995C95.2095 4.81995 120.519 4.82001 120.519 30.13" stroke="#3E3E3D" stroke-width="8" stroke-miterlimit="10"/>
		<path d="M145.829 60.51C145.829 60.51 145.829 30.13 115.449 30.13C85.0795 30.13 85.0795 60.51 85.0795 60.51L95.1995 65.5699L105.319 60.51L115.439 65.5699L125.559 60.51" stroke="#3E3E3D" stroke-width="8" stroke-miterlimit="10"/>
		<path d="M145.829 60.51C145.829 86.57 125.579 135.67 90.1395 150.85C47.2495 169.24 4.07947 160.97 4.07947 150.85C4.07947 140.73 24.3295 146.57 49.6395 131.38C80.9395 112.6 85.0795 90.88 85.0795 60.5" stroke="#3E3E3D" stroke-width="8" stroke-miterlimit="10"/>
		</svg>