<svg class="niw_svg_allergen" width="146" height="150" viewBox="0 0 146 150" fill="none" xmlns="http://www.w3.org/2000/svg">
		<path d="M145.005 86.3749V131.815L110.635 149.005L80.255 133.815L49.885 149.005L15.505 131.815V86.3749L45.885 71.1849V30.6849L80.255 13.4949L114.635 30.6849V71.1849L145.005 86.3749Z" fill="#C9C2BE"/>
		<path d="M95.635 60.665V20.165L65.255 4.9751L34.885 20.165V60.665L65.255 75.8451L95.635 60.665Z" stroke="#3E3E3D" stroke-width="8" stroke-miterlimit="10"/>
		<path d="M34.885 20.165L65.255 35.3451L95.635 20.165" stroke="#3E3E3D" stroke-width="8" stroke-miterlimit="10"/>
		<path d="M65.255 71.8151V35.3451" stroke="#3E3E3D" stroke-width="8" stroke-miterlimit="10"/>
		<path d="M126.005 116.345V75.8451L95.635 60.665L65.255 75.8451V116.345L95.635 131.535L126.005 116.345Z" stroke="#3E3E3D" stroke-width="8" stroke-miterlimit="10"/>
		<path d="M65.255 75.8451L95.635 91.035L126.005 75.8451" stroke="#3E3E3D" stroke-width="8" stroke-miterlimit="10"/>
		<path d="M95.635 127.505V91.035" stroke="#3E3E3D" stroke-width="8" stroke-miterlimit="10"/>
		<path d="M65.255 116.345V75.8451L34.885 60.665L4.505 75.8451V116.345L34.885 131.535L65.255 116.345Z" stroke="#3E3E3D" stroke-width="8" stroke-miterlimit="10"/>
		<path d="M4.505 75.8451L34.885 91.035L65.255 75.8451" stroke="#3E3E3D" stroke-width="8" stroke-miterlimit="10"/>
		<path d="M34.885 127.505V91.035" stroke="#3E3E3D" stroke-width="8" stroke-miterlimit="10"/>
		</svg>