<svg class="niw_svg_allergen" width="116" height="173" viewBox="0 0 116 173" fill="none" xmlns="http://www.w3.org/2000/svg">
		<path d="M115.135 169.16L114.875 172.88H16.2946L16.0346 169.16C11.4046 104.32 39.6046 72.54 46.3946 65.89V41.25H45.3346C39.6546 41.25 31.2145 37.49 31.2145 27.13C31.2145 16.76 39.6546 13 45.3346 13H85.8346C91.5146 13 99.9645 16.76 99.9645 27.13C99.9645 37.49 91.5146 41.25 85.8346 41.25H84.7746V65.89C91.5646 72.54 119.765 104.32 115.135 169.16Z" fill="#8381CB"/>
		<path d="M30.3345 24.2599C30.3345 24.2599 20.2145 24.26 20.2145 14.14C20.2145 4.01995 30.3345 4.0199 30.3345 4.0199H70.8345C70.8345 4.0199 80.9545 4.01995 80.9545 14.14C80.9545 24.26 70.8345 24.2599 70.8345 24.2599H30.3345Z" stroke="#3E3E3D" stroke-width="8" stroke-miterlimit="10"/>
		<path d="M65.7746 24.26V54.64C65.7746 54.64 101.215 85.02 96.1545 155.89C75.9045 155.89 25.2745 155.89 5.03451 155.89C-0.0254906 85.01 35.4145 54.64 35.4145 54.64V24.26" stroke="#3E3E3D" stroke-width="8" stroke-miterlimit="10"/>
		<path d="M10.0846 95.1299C15.1446 95.1299 15.1446 90.0699 20.2046 90.0699C25.2646 90.0699 25.2646 95.1299 30.3246 95.1299C35.3846 95.1299 35.3845 90.0699 40.4445 90.0699C45.5045 90.0699 45.5046 95.1299 50.5746 95.1299C55.6446 95.1299 55.6345 90.0699 60.6945 90.0699C65.7545 90.0699 65.7545 95.1299 70.8145 95.1299C75.8745 95.1299 75.8745 90.0699 80.9345 90.0699C85.9945 90.0699 85.9945 95.1299 91.0545 95.1299" stroke="#3E3E3D" stroke-width="8" stroke-miterlimit="10"/>
		<path d="M42.5545 120.44L35.3945 113.29" stroke="#3E3E3D" stroke-width="8" stroke-miterlimit="10"/>
		<path d="M62.8045 140.69L55.6445 133.54" stroke="#3E3E3D" stroke-width="8" stroke-miterlimit="10"/>
		<path d="M69.5446 120.44L75.8946 112.56" stroke="#3E3E3D" stroke-width="8" stroke-miterlimit="10"/>
		<path d="M20.2046 140.69L26.5546 132.81" stroke="#3E3E3D" stroke-width="8" stroke-miterlimit="10"/>
		</svg>