<svg width="30" height="30" viewBox="0 0 445 445" fill="none" xmlns="http://www.w3.org/2000/svg">
	<circle cx="222.711" cy="222.462" r="222.289" fill="white"/>
	<mask id="path-2-inside-1" fill="white">
	<path d="M227.076 408.506C124.699 409.204 40.2028 325.345 39.8949 222.742C39.587 120.612 122.42 37.4087 225.372 36.4233C327.051 35.4379 411.793 117.943 412.389 218.472C413.005 324.606 331.875 407.788 227.076 408.506ZM233.707 309.866C226.481 302.229 224.879 294.469 228.616 285.088C231.366 278.17 232.537 270.636 234.446 263.389C237.238 252.858 240.378 242.388 242.637 231.734C243.129 229.373 240.502 226.335 239.311 223.625C237.176 225.37 234.569 226.786 233.05 228.942C231.756 230.769 231.736 233.458 231.1 235.757C226.912 250.99 222.724 266.201 217.961 283.528C213.383 275.952 210.448 270.204 206.65 265.072C200.881 257.23 200.06 249.306 203.304 240.171C206.362 231.508 208.826 222.557 210.407 213.525C211.125 209.357 209.113 204.738 208.333 200.304C205.747 203.671 202.154 206.668 200.779 210.466C197.576 219.314 195.441 228.552 192.711 238.221C181.748 225.801 175.775 213.319 183.144 197.738C184.294 195.316 185.3 192.401 185.033 189.855C184.725 187.063 182.878 184.415 181.707 181.705C179.408 183.696 176.288 185.257 174.994 187.782C173.126 191.436 172.552 195.767 170.786 202.172C165.695 193.591 162.492 187.186 158.243 181.561C156.744 179.57 152.721 179.467 149.867 178.503C149.703 181.233 148.553 184.415 149.559 186.611C152.557 193.14 156.395 199.278 161.138 207.777C153.85 205.888 149.354 204.225 144.735 203.732C142.58 203.507 140.178 205.477 137.879 206.463C139.213 208.824 139.993 212.313 142.005 213.319C146.213 215.413 150.996 216.973 155.677 217.363C172.182 218.739 175.261 232.144 182.385 244.954C170.088 241.793 159.967 238.795 149.662 236.784C146.952 236.25 143.647 238.816 140.629 239.966C142.682 242.203 144.345 245.59 146.891 246.473C155.266 249.347 163.827 252.591 172.531 253.35C194.086 255.26 198.931 272.237 207.574 289.05C189.2 284.226 172.818 279.689 156.293 275.829C153.07 275.07 149.21 277.02 145.659 277.718C148.389 280.448 150.647 284.698 153.911 285.663C170.909 290.733 188.051 295.455 205.356 299.314C215.231 301.531 220.856 306.725 223.196 316.415C221.882 317.236 220.835 318.16 219.603 318.652C190.761 330.005 163.642 326.309 139.521 307.3C115.995 288.762 106.531 263.676 110.042 233.951C111.561 221.1 113.634 208.29 115.502 195.48C118.499 175.033 121.558 154.607 124.781 133.011C135.046 137.055 144.017 141.058 153.337 143.973C156.416 144.938 160.378 143.091 163.929 142.536C161.569 139.744 159.742 135.823 156.724 134.386C147.178 129.87 137.119 126.421 127.388 122.295C119.608 118.99 115.646 120.119 114.394 129.624C109.959 163.414 105.238 197.163 99.8799 230.81C90.334 290.774 141.471 343.307 201.497 334.398C211.125 332.961 220.486 329.697 229.929 327.274C239.681 341.377 241.138 341.624 247.358 330.128C248.303 330.395 249.288 330.62 250.253 330.949C299.85 348.07 347.538 318.775 353.574 266.591C354.888 255.342 352.609 243.558 351.131 232.124C348.113 208.803 344.747 185.503 340.887 162.305C340.353 159.103 335.139 153.601 333.887 154.073C314.036 161.382 294.451 169.367 274.969 177.62C273.327 178.318 272.937 181.931 271.972 184.189C274.271 185.092 276.632 186.878 278.829 186.714C281.764 186.488 284.597 184.784 287.43 183.635C301.554 178.01 315.678 172.385 331.198 166.185C335.283 195.541 339.327 223.112 342.919 250.743C347.128 283.096 328.755 312.309 297.654 322.224C279.835 327.911 262.508 326.433 243.211 315.327C251.094 311.611 256.227 308.367 261.831 306.704C276.879 302.27 292.214 298.801 307.241 294.264C310.279 293.34 312.393 289.378 314.939 286.812C311.49 285.929 307.754 283.733 304.633 284.39C292.131 287.038 279.794 290.589 266.122 294.141C268.482 289.029 270.761 285.519 271.746 281.659C273.861 273.366 278.89 269.568 287.246 268.152C295.95 266.673 304.51 264.066 312.886 261.213C315.432 260.33 317.135 256.963 319.209 254.726C316.15 253.576 312.845 251.051 310.053 251.503C302.211 252.796 294.554 255.301 285.932 257.579C289.771 245.303 295.724 237.502 307.959 236.188C311.285 235.839 314.836 234.895 317.669 233.191C319.517 232.083 320.256 229.147 321.487 227.033C319.27 225.883 317.094 223.851 314.857 223.768C311.531 223.645 308.144 224.918 303.196 225.924C306.748 219.498 309.683 215.228 311.449 210.527C312.311 208.208 311.018 205.067 310.71 202.316C307.918 203.404 304.284 203.753 302.498 205.744C299.132 209.522 296.853 214.243 293.26 219.95C291.803 215.495 291.577 212.888 290.222 211.123C288.416 208.782 285.747 207.099 283.448 205.128C282.401 208.228 280.307 211.431 280.553 214.428C280.964 219.457 283.407 224.302 283.961 229.332C284.372 233.068 283.16 236.989 282.688 240.828C279.28 234.587 278.562 228.572 277.063 222.763C266.655 182.259 236.17 163.455 199.362 151.795C197.597 151.24 194.928 153.54 192.69 154.525C193.963 156.947 194.62 160.54 196.611 161.566C203.263 164.974 210.365 167.54 217.345 170.312C241.364 179.837 257.458 196.835 265.629 221.284C276.447 253.658 261.544 295.373 233.707 309.866Z"/>
	</mask>
	<path d="M227.076 408.506C124.699 409.204 40.2028 325.345 39.8949 222.742C39.587 120.612 122.42 37.4087 225.372 36.4233C327.051 35.4379 411.793 117.943 412.389 218.472C413.005 324.606 331.875 407.788 227.076 408.506ZM233.707 309.866C226.481 302.229 224.879 294.469 228.616 285.088C231.366 278.17 232.537 270.636 234.446 263.389C237.238 252.858 240.378 242.388 242.637 231.734C243.129 229.373 240.502 226.335 239.311 223.625C237.176 225.37 234.569 226.786 233.05 228.942C231.756 230.769 231.736 233.458 231.1 235.757C226.912 250.99 222.724 266.201 217.961 283.528C213.383 275.952 210.448 270.204 206.65 265.072C200.881 257.23 200.06 249.306 203.304 240.171C206.362 231.508 208.826 222.557 210.407 213.525C211.125 209.357 209.113 204.738 208.333 200.304C205.747 203.671 202.154 206.668 200.779 210.466C197.576 219.314 195.441 228.552 192.711 238.221C181.748 225.801 175.775 213.319 183.144 197.738C184.294 195.316 185.3 192.401 185.033 189.855C184.725 187.063 182.878 184.415 181.707 181.705C179.408 183.696 176.288 185.257 174.994 187.782C173.126 191.436 172.552 195.767 170.786 202.172C165.695 193.591 162.492 187.186 158.243 181.561C156.744 179.57 152.721 179.467 149.867 178.503C149.703 181.233 148.553 184.415 149.559 186.611C152.557 193.14 156.395 199.278 161.138 207.777C153.85 205.888 149.354 204.225 144.735 203.732C142.58 203.507 140.178 205.477 137.879 206.463C139.213 208.824 139.993 212.313 142.005 213.319C146.213 215.413 150.996 216.973 155.677 217.363C172.182 218.739 175.261 232.144 182.385 244.954C170.088 241.793 159.967 238.795 149.662 236.784C146.952 236.25 143.647 238.816 140.629 239.966C142.682 242.203 144.345 245.59 146.891 246.473C155.266 249.347 163.827 252.591 172.531 253.35C194.086 255.26 198.931 272.237 207.574 289.05C189.2 284.226 172.818 279.689 156.293 275.829C153.07 275.07 149.21 277.02 145.659 277.718C148.389 280.448 150.647 284.698 153.911 285.663C170.909 290.733 188.051 295.455 205.356 299.314C215.231 301.531 220.856 306.725 223.196 316.415C221.882 317.236 220.835 318.16 219.603 318.652C190.761 330.005 163.642 326.309 139.521 307.3C115.995 288.762 106.531 263.676 110.042 233.951C111.561 221.1 113.634 208.29 115.502 195.48C118.499 175.033 121.558 154.607 124.781 133.011C135.046 137.055 144.017 141.058 153.337 143.973C156.416 144.938 160.378 143.091 163.929 142.536C161.569 139.744 159.742 135.823 156.724 134.386C147.178 129.87 137.119 126.421 127.388 122.295C119.608 118.99 115.646 120.119 114.394 129.624C109.959 163.414 105.238 197.163 99.8799 230.81C90.334 290.774 141.471 343.307 201.497 334.398C211.125 332.961 220.486 329.697 229.929 327.274C239.681 341.377 241.138 341.624 247.358 330.128C248.303 330.395 249.288 330.62 250.253 330.949C299.85 348.07 347.538 318.775 353.574 266.591C354.888 255.342 352.609 243.558 351.131 232.124C348.113 208.803 344.747 185.503 340.887 162.305C340.353 159.103 335.139 153.601 333.887 154.073C314.036 161.382 294.451 169.367 274.969 177.62C273.327 178.318 272.937 181.931 271.972 184.189C274.271 185.092 276.632 186.878 278.829 186.714C281.764 186.488 284.597 184.784 287.43 183.635C301.554 178.01 315.678 172.385 331.198 166.185C335.283 195.541 339.327 223.112 342.919 250.743C347.128 283.096 328.755 312.309 297.654 322.224C279.835 327.911 262.508 326.433 243.211 315.327C251.094 311.611 256.227 308.367 261.831 306.704C276.879 302.27 292.214 298.801 307.241 294.264C310.279 293.34 312.393 289.378 314.939 286.812C311.49 285.929 307.754 283.733 304.633 284.39C292.131 287.038 279.794 290.589 266.122 294.141C268.482 289.029 270.761 285.519 271.746 281.659C273.861 273.366 278.89 269.568 287.246 268.152C295.95 266.673 304.51 264.066 312.886 261.213C315.432 260.33 317.135 256.963 319.209 254.726C316.15 253.576 312.845 251.051 310.053 251.503C302.211 252.796 294.554 255.301 285.932 257.579C289.771 245.303 295.724 237.502 307.959 236.188C311.285 235.839 314.836 234.895 317.669 233.191C319.517 232.083 320.256 229.147 321.487 227.033C319.27 225.883 317.094 223.851 314.857 223.768C311.531 223.645 308.144 224.918 303.196 225.924C306.748 219.498 309.683 215.228 311.449 210.527C312.311 208.208 311.018 205.067 310.71 202.316C307.918 203.404 304.284 203.753 302.498 205.744C299.132 209.522 296.853 214.243 293.26 219.95C291.803 215.495 291.577 212.888 290.222 211.123C288.416 208.782 285.747 207.099 283.448 205.128C282.401 208.228 280.307 211.431 280.553 214.428C280.964 219.457 283.407 224.302 283.961 229.332C284.372 233.068 283.16 236.989 282.688 240.828C279.28 234.587 278.562 228.572 277.063 222.763C266.655 182.259 236.17 163.455 199.362 151.795C197.597 151.24 194.928 153.54 192.69 154.525C193.963 156.947 194.62 160.54 196.611 161.566C203.263 164.974 210.365 167.54 217.345 170.312C241.364 179.837 257.458 196.835 265.629 221.284C276.447 253.658 261.544 295.373 233.707 309.866Z" fill="#269C8A" stroke="white" stroke-width="8" mask="url(#path-2-inside-1)"/>
	</svg>