<svg class="niw_svg_allergen" width="125" height="125" viewBox="0 0 125 125" fill="none" xmlns="http://www.w3.org/2000/svg">
<g clip-path="url(#clip0_403_66)">
<path d="M112.234 97.3869L110.928 97.0876C123.581 86.7219 126.277 63.7055 114.36 51.713C109.774 47.1005 107.034 39.801 107.034 32.1847C107.034 21.1452 99.7724 12.162 90.8441 12.162C81.9186 12.162 74.6539 21.1452 74.6539 32.1847C74.6539 34.6933 74.3572 37.1652 73.7933 39.5181C65.4757 29.9178 52.2673 28.8174 43.4352 34.9542V12.4358C43.4352 11.4598 42.6433 10.6679 41.6682 10.6679C40.6923 10.6679 39.9003 11.4598 39.9003 12.4358V19.3773C34.6205 9.85216 25.0129 7.30424 14.2536 9.47039C13.1668 9.69011 12.547 10.8473 12.9663 11.8746C13.0652 12.1154 15.4465 17.8548 20.047 22.8802C25.4917 28.8284 32.2492 31.7819 39.9003 29.6633V34.9542C29.5173 27.7398 12.1323 30.3298 4.99023 46.7801C4.60205 47.6755 5.01404 48.7146 5.90942 49.1037C6.80573 49.4928 7.84486 49.0826 8.23396 48.1863C14.7699 33.135 30.399 31.9192 38.6882 38.4478C40.4139 39.8999 42.9307 39.8925 44.6474 38.4478C54.0837 31.0156 70.4086 34.2501 76.0024 50.5127C79.01 59.2716 78.4085 68.4315 73.1881 77.9063C71.1117 81.6206 69.4051 84.7087 67.9952 87.2804C57.0473 84.922 55.4845 84.0596 51.7583 84.1401C50.7823 84.1594 50.0069 84.965 50.0279 85.941C50.0472 86.9197 50.851 87.697 51.8315 87.6732C52.4724 87.6594 53.2002 87.6924 53.9684 87.7867L52.9082 97.3082C52.8002 98.2778 53.4987 99.1521 54.4692 99.2601C55.4433 99.3681 56.314 98.6659 56.422 97.6991L57.4474 88.4944C64.5089 90.1066 69.1048 91.1577 74.5806 92.4101L74.0753 96.9502C73.9672 97.9207 74.6658 98.795 75.6362 98.9031C76.6104 99.0111 77.481 98.3089 77.5891 97.3412L78.0496 93.2021C79.1418 93.452 104.233 99.1832 104.547 99.2555L103.182 111.512C103.074 112.482 103.773 113.357 104.743 113.465C105.718 113.573 106.588 112.87 106.696 111.904L108.017 100.048L111.447 100.833C115.7 101.803 118.509 105.754 118.023 110.091C117.543 114.404 113.905 117.664 109.567 117.673L91.4722 117.708L92.1149 111.944C92.2229 110.973 91.5243 110.099 90.5539 109.991C89.5825 109.884 88.7091 110.582 88.6011 111.552L87.9144 117.715L70.5724 117.748L71.1758 112.329C71.2838 111.36 70.5852 110.485 69.6148 110.377C68.6471 110.268 67.77 110.968 67.662 111.938C67.5118 113.289 67.0293 117.612 67.0147 117.756L58.7117 117.771L59.7628 108.339C59.8708 107.369 59.1722 106.495 58.2018 106.387C57.2304 106.278 56.357 106.977 56.249 107.948L55.1531 117.779C55.1357 117.779 55.1229 117.779 55.1128 117.779C55.1119 117.779 55.11 117.779 55.1091 117.779C55.1064 117.779 55.1036 117.779 55.1009 117.779C55.1009 117.779 55.1 117.779 55.099 117.779C55.0954 117.779 55.0936 117.779 55.0899 117.779C54.9755 117.779 54.4206 117.779 52.162 117.784C45.2232 117.784 39.275 113.051 37.584 106.51C35.8491 99.8296 38.8868 92.3698 45.7249 89.1206C46.6066 88.7013 46.9829 87.6475 46.5636 86.7659C46.1442 85.8842 45.0905 85.507 44.2088 85.9272C40.7628 87.5624 37.9823 90.1414 36.132 93.2945C32.5541 91.5101 28.4617 88.7031 26.2791 84.5695C23.4583 79.2109 15.3229 81.2232 15.2954 87.2731L9.75648 77.2032C5.95978 70.3046 4.56909 62.562 6.22162 54.5712C6.41938 53.6145 5.80414 52.6788 4.84741 52.4811C3.89068 52.2833 2.95684 52.8986 2.75908 53.8553C0.986617 62.4302 2.33245 71.0444 6.65741 78.9079L14.2096 92.6344L8.67524 92.0174C5.47272 91.6612 2.59154 93.9629 2.2354 97.1672C1.88017 100.361 4.18731 103.251 7.38343 103.607L16.547 104.627C14.2746 106.661 12.4454 108.505 12.6752 111.413C13.0725 116.553 19.5389 118.694 22.9182 114.748C25.6995 111.493 30.0456 109.483 34.4511 108.398C36.8461 115.884 43.8792 121.32 52.162 121.32C54.8555 121.314 106.318 121.215 109.571 121.209C116.254 121.196 121.613 115.781 121.613 109.136C121.612 103.48 117.756 98.6476 112.234 97.3869ZM17.2043 12.5539C28.9588 10.949 36.371 16.5511 38.8466 26.2859C29.2701 28.8641 21.7389 21.2935 17.2043 12.5539ZM106.317 96.0338L71.5923 88.0998C72.5958 86.2614 73.709 84.2326 74.9487 82.0005C78.2226 87.6402 84.3264 91.4397 91.301 91.4397C100.274 91.4397 108.064 85.0621 109.822 76.2748C110.013 75.3181 109.391 74.387 108.434 74.1966C107.475 74.0052 106.546 74.625 106.355 75.5818C104.927 82.7211 98.5959 87.9048 91.301 87.9048C84.8428 87.9048 79.3038 83.8957 77.0388 78.2359C79.9758 72.6456 81.383 66.7386 81.3354 60.8793C90.2051 53.295 103.88 58.0786 106.306 69.2838C106.513 70.2387 107.451 70.8448 108.409 70.637C109.363 70.4301 109.969 69.4889 109.761 68.5349C108.864 64.3839 106.544 60.6101 103.237 57.9093C96.9534 52.7814 87.9721 52.2028 81.0553 56.6889C80.4666 52.0426 78.9221 47.2003 76.4547 43.1665C77.5881 39.7488 78.1896 36.029 78.1896 32.1847C78.1896 24.0282 83.2699 15.6978 90.8441 15.6978C98.3377 15.6978 103.499 23.9165 103.499 32.1847C103.499 40.8401 106.544 48.8657 111.852 54.2069C121.058 63.4647 120.168 80.6529 112.17 90.7777C110.433 92.9768 108.455 94.7447 106.317 96.0338ZM33.6985 104.917C28.6622 106.142 23.5663 108.55 20.2311 112.45C19.408 113.412 17.956 113.525 16.9947 112.703C16.0306 111.876 15.918 110.43 16.7429 109.468C18.2819 107.669 20.1258 106.104 22.0878 104.844C23.4794 103.944 22.9749 101.786 21.3242 101.604C19.7934 101.433 8.93251 100.221 7.77436 100.092C6.51825 99.9532 5.60821 98.8152 5.74738 97.5591C5.88654 96.3167 6.99891 95.3929 8.2834 95.5321C8.29072 95.533 8.29804 95.533 8.30445 95.5339C8.30079 95.5339 8.29713 95.533 8.29438 95.533C8.30262 95.5339 8.31635 95.5357 8.3365 95.5376C8.33558 95.5376 8.33467 95.5376 8.33283 95.5376C8.35206 95.5394 8.36579 95.5403 8.37403 95.5421C8.36762 95.5412 8.35847 95.5403 8.3484 95.5385C8.71003 95.5788 10.8222 95.8141 20.5936 96.9035C21.1558 96.8678 22.8687 97.5957 23.6176 96.0594C23.9454 95.3856 23.8135 94.5818 23.2899 94.0471C21.5742 92.2975 20.1624 90.384 19.0949 88.3616C18.5035 87.2419 18.9347 85.8513 20.0516 85.2598H20.0544C21.1841 84.6656 22.5611 85.1024 23.1534 86.2193C25.7581 91.1549 30.5354 94.438 34.6461 96.4815C33.7077 99.1283 33.357 102.069 33.6985 104.917Z" fill="#52843D"/>
</g>
<defs>
<clipPath id="clip0_403_66">
<rect width="124.86" height="124.86" fill="white"/>
</clipPath>
</defs>
</svg>
