<svg class="niw_svg_allergen" width="172" height="170" viewBox="0 0 172 170" fill="none" xmlns="http://www.w3.org/2000/svg">
		<path d="M171.564 55.02L165.914 60.68C155.324 50.1 140.494 55.68 133.504 59.3C137.444 64.23 140.644 70.62 139.684 79.05C138.524 89.31 131.114 101.14 117.044 115.19C109.694 122.56 100.894 130.16 91.6437 137.25C82.4037 144.34 72.7137 150.91 63.5937 156.19C48.7637 164.77 37.2237 169.07 29.0937 169.07C24.8337 169.07 21.5137 167.89 19.1437 165.52C12.2637 158.64 15.3937 143.68 28.4737 121.08C39.0237 102.82 54.7337 82.34 69.4637 67.61C83.5237 53.55 95.3537 46.14 105.614 44.97C114.054 44.01 120.454 47.23 125.384 51.18C129.054 44.21 134.684 29.4599 123.984 18.7599L129.644 13.1C138.184 21.64 139.184 32.3399 137.254 41.7499L157.524 21.48L163.184 27.14L142.924 47.4C152.334 45.47 163.034 46.49 171.564 55.02Z" fill="#C5985D"/>
		<path d="M99.2137 99.37C128.174 70.43 123.384 56.44 111.814 44.85C100.224 33.28 86.2438 28.49 57.2938 57.44C28.3438 86.38 -4.60631 138.11 6.97369 149.69C18.5537 161.27 70.2837 128.33 99.2137 99.37Z" stroke="#3E3E3D" stroke-width="8" stroke-miterlimit="10"/>
		<path d="M71.9037 47.5099L80.2937 55.9" stroke="#3E3E3D" stroke-width="8" stroke-miterlimit="10"/>
		<path d="M90.8336 90.9901L78.2537 78.41" stroke="#3E3E3D" stroke-width="8" stroke-miterlimit="10"/>
		<path d="M46.8136 71.4999L59.3837 84.08" stroke="#3E3E3D" stroke-width="8" stroke-miterlimit="10"/>
		<path d="M61.4836 111.96L53.1036 103.56" stroke="#3E3E3D" stroke-width="8" stroke-miterlimit="10"/>
		<path d="M51.9137 135.09L39.3236 122.51" stroke="#3E3E3D" stroke-width="8" stroke-miterlimit="10"/>
		<path d="M27.9336 95.18L36.3236 103.56" stroke="#3E3E3D" stroke-width="8" stroke-miterlimit="10"/>
		<path d="M111.814 44.86L145.354 11.32" stroke="#3E3E3D" stroke-width="8" stroke-miterlimit="10"/>
		<path d="M111.334 44.4C111.334 44.4 128.574 19.7 111.804 2.92999" stroke="#3E3E3D" stroke-width="8" stroke-miterlimit="10"/>
		<path d="M112.264 45.32C112.264 45.32 136.964 28.0801 153.734 44.8501" stroke="#3E3E3D" stroke-width="8" stroke-miterlimit="10"/>
		</svg>